<?xml version="1.0" encoding="utf-8"?>
<!-- Generator: Adobe Illustrator 19.0.0, SVG Export Plug-In . SVG Version: 6.00 Build 0)  -->
<svg version="1.1" id="Layer_1" xmlns="http://www.w3.org/2000/svg" xmlns:xlink="http://www.w3.org/1999/xlink" x="0px" y="0px"
	 viewBox="0 0 267.6 85.3" style="enable-background:new 0 0 267.6 85.3;" xml:space="preserve">
	<path class="neatIon" id="XMLID_2_" d="M18.6,21.9l0.8,8.9c2.1-3.2,4.6-5.6,7.7-7.4c3-1.8,6.4-2.7,10.2-2.7c6.2,0,11.1,2,14.6,6
		c3.5,4,5.2,10.4,5.2,19.2v39.3H37.2V45.9c0-3.6-0.8-6.2-2.3-7.7c-1.5-1.5-3.7-2.3-6.7-2.3c-1.8,0-3.5,0.3-4.9,1
		c-1.4,0.7-2.6,1.6-3.7,2.8v45.6H0V21.9H18.6z"/>
	<path class="neatIon" id="XMLID_5_" d="M122.2,48.8H88.7v21.3h39.4v15.2H68.8V0h59.4v15.2H88.7v18.3h33.5V48.8z"/>
	<path class="neatIon" id="XMLID_7_" d="M182.5,68.7h-26.9l-4.8,16.6h-19.9L158.4,0h21.3l27.6,85.3h-19.9L182.5,68.7z M160,53.5h18.1L169.2,23h-0.4
		L160,53.5z"/>
	<path class="neatIon" id="XMLID_10_" d="M267.6,15.2h-22.5v70.1h-19.9V15.2h-22.3V0h64.7V15.2z"/>
</svg>
