<?xml version="1.0" encoding="utf-8"?>
<!-- Generator: Adobe Illustrator 19.0.0, SVG Export Plug-In . SVG Version: 6.00 Build 0)  -->
<svg version="1.1" id="Layer_1" xmlns="http://www.w3.org/2000/svg" xmlns:xlink="http://www.w3.org/1999/xlink" x="0px" y="0px"
	 viewBox="0 0 394.1 85.3" style="enable-background:new 0 0 394.1 85.3;" xml:space="preserve">
<path id="XMLID_2_" d="M72.5,50.1c0,10.2-3.3,18.6-10,25.3c-6.7,6.6-15.4,9.9-26.1,9.9c-10.8,0-19.6-3.3-26.3-9.9
	C3.4,68.8,0,60.3,0,50.1V35.2C0,25,3.3,16.6,10,10C16.7,3.3,25.5,0,36.3,0C47,0,55.7,3.3,62.4,10c6.7,6.6,10.1,15.1,10.1,25.2V50.1z
	 M52.7,35.1c0-5.9-1.4-10.8-4.3-14.6c-2.9-3.8-6.9-5.7-12.2-5.7c-5.4,0-9.4,1.9-12.3,5.7c-2.8,3.8-4.2,8.6-4.2,14.6v15
	c0,6,1.4,10.9,4.3,14.7c2.9,3.8,7,5.7,12.3,5.7c5.2,0,9.2-1.9,12.1-5.7c2.9-3.8,4.3-8.7,4.3-14.7V35.1z"/>
<path id="XMLID_6_" d="M138,51h-34.2v34.3H84V0h60v15.2h-40.1v20.5H138V51z"/>
<path id="XMLID_8_" d="M207,51h-34.2v34.3h-19.9V0h60v15.2h-40.1v20.5H207V51z"/>
<path id="XMLID_10_" d="M243,85.3h-19.7V0H243V85.3z"/>
<path id="XMLID_12_" d="M324.1,55l0.1,0.3c-0.4,9.7-3.4,17.1-8.9,22.3c-5.5,5.1-13.5,7.7-24.1,7.7c-10.5,0-19.1-3.2-25.7-9.5
	c-6.6-6.3-9.9-14.5-9.9-24.5V34c0-10,3.2-18.2,9.5-24.5C271.6,3.2,279.8,0,290,0c10.8,0,19,2.6,24.7,7.9c5.7,5.3,8.9,12.8,9.7,22.5
	l-0.1,0.3H305c-0.3-5.4-1.5-9.4-3.7-12c-2.2-2.6-6-3.9-11.3-3.9c-4.5,0-8,1.8-10.6,5.3c-2.6,3.5-3.9,8.1-3.9,13.8v17.4
	c0,5.7,1.4,10.4,4.2,13.9s6.7,5.3,11.6,5.3c4.8,0,8.1-1.2,10.1-3.7c2-2.5,3.1-6.4,3.4-11.8H324.1z"/>
<path id="XMLID_14_" d="M388.1,48.8h-33.5v21.3h39.4v15.2h-59.3V0h59.4v15.2h-39.6v18.3h33.5V48.8z"/>
<g id="XMLID_1_">
</g>
<g id="XMLID_106_">
</g>
<g id="XMLID_107_">
</g>
<g id="XMLID_108_">
</g>
<g id="XMLID_109_">
</g>
<g id="XMLID_110_">
</g>
<g id="XMLID_111_">
</g>
<g id="XMLID_112_">
</g>
<g id="XMLID_113_">
</g>
<g id="XMLID_114_">
</g>
<g id="XMLID_115_">
</g>
<g id="XMLID_116_">
</g>
<g id="XMLID_117_">
</g>
<g id="XMLID_118_">
</g>
<g id="XMLID_119_">
</g>
</svg>
