<?xml version="1.0" encoding="utf-8"?>
<!-- Generator: Adobe Illustrator 19.0.0, SVG Export Plug-In . SVG Version: 6.00 Build 0)  -->
<svg version="1.1" id="Layer_1" xmlns="http://www.w3.org/2000/svg" xmlns:xlink="http://www.w3.org/1999/xlink" x="0px" y="0px"
	 viewBox="0 0 346.2 85.3" style="enable-background:new 0 0 346.2 85.3;" xml:space="preserve">
<path id="XMLID_2_" d="M74.7,56h0.4L86.3,0h19.2L85.8,85.3H67.2L52.9,32.7h-0.4L38.3,85.3H19.6L0,0h19.2l11.2,56h0.4L45.8,0h13.8
	L74.7,56z"/>
<path id="XMLID_5_" d="M183.2,50.1c0,10.2-3.3,18.6-10,25.3c-6.7,6.6-15.4,9.9-26.1,9.9c-10.8,0-19.6-3.3-26.3-9.9
	c-6.7-6.6-10.1-15-10.1-25.3V35.2c0-10.2,3.3-18.6,10-25.2c6.7-6.6,15.4-10,26.2-10c10.7,0,19.4,3.3,26.1,10
	c6.7,6.6,10.1,15.1,10.1,25.2V50.1z M163.5,35.1c0-5.9-1.4-10.8-4.3-14.6c-2.9-3.8-6.9-5.7-12.2-5.7c-5.4,0-9.4,1.9-12.3,5.7
	c-2.8,3.8-4.2,8.6-4.2,14.6v15c0,6,1.4,10.9,4.3,14.7c2.9,3.8,7,5.7,12.3,5.7c5.2,0,9.2-1.9,12.1-5.7c2.9-3.8,4.3-8.7,4.3-14.7V35.1
	z"/>
<path id="XMLID_8_" d="M214.6,52.6v32.7h-19.9V0h32.8c9.9,0,17.7,2.3,23.5,6.9c5.8,4.6,8.7,10.8,8.7,18.8c0,4.4-1.2,8.2-3.5,11.4
	c-2.3,3.2-5.8,5.7-10.3,7.7c5.2,1.5,9,4,11.3,7.4c2.3,3.5,3.4,7.8,3.4,12.9v5.4c0,2.2,0.3,4.8,1,7.6c0.7,2.9,1.8,4.9,3.5,6.1v1.2
	h-20.4c-1.6-1.2-2.6-3.4-3.1-6.4c-0.5-3.1-0.7-5.9-0.7-8.6v-5.2c0-4.1-1.1-7.2-3.2-9.3c-2.1-2.1-5.3-3.2-9.4-3.2H214.6z M214.6,37.4
	h13.1c4,0,7-0.9,9.1-2.7s3.2-4.4,3.2-7.8c0-3.5-1.1-6.3-3.3-8.4c-2.2-2.1-5.2-3.2-9.2-3.2h-12.9V37.4z"/>
<path id="XMLID_11_" d="M302.9,51.1h-9.1v34.2h-19.9V0h19.9v33.4h6.7L319.3,0h24.6l-26.4,38.6l28.7,46.7H322L302.9,51.1z"/>
<g id="XMLID_1_">
</g>
<g id="XMLID_64_">
</g>
<g id="XMLID_65_">
</g>
<g id="XMLID_66_">
</g>
<g id="XMLID_67_">
</g>
<g id="XMLID_68_">
</g>
<g id="XMLID_69_">
</g>
<g id="XMLID_70_">
</g>
<g id="XMLID_71_">
</g>
<g id="XMLID_72_">
</g>
<g id="XMLID_73_">
</g>
<g id="XMLID_74_">
</g>
<g id="XMLID_75_">
</g>
<g id="XMLID_76_">
</g>
<g id="XMLID_77_">
</g>
</svg>
